#!OML:ASF F:\VICON\USERDATA\INSTALL\rory3\rory3.ASF
:FULLY-SPECIFIED
:DEGREES
235
root -0.541144 18.1039 -6.56027 -170.644 -34.1127 180.935
lowerback -9.42831 0.106339 1.42122
upperback -2.22914 -0.118568 -0.0538103
thorax 2.9691 -0.103218 -0.872072
lowerneck -18.5562 0.126822 1.86498
upperneck 24.1382 -0.564818 -1.15119
head 10.8509 -0.415949 -0.848096
rclavicle 5.12088e-014 -3.08116e-015
rhumerus -28.6296 15.1828 -95.5693
rradius 38.1213
rwrist -2.35236
rhand -22.1016 11.0343
rfingers 7.12502
rthumb 4.31066 -18.9018
lclavicle 5.12088e-014 -3.08116e-015
lhumerus -40.287 -13.9508 89.063
lradius 36.8776
lwrist 12.0284
lhand -11.409 27.5591
lfingers 7.12502
lthumb 14.6265 57.0233
rfemur -1.72689 -6.05015 22.9356
rtibia 16.2747
rfoot -18.7176 9.57288
rtoes -2.23607
lfemur -40.8711 15.1179 -27.0882
ltibia 20.4451
lfoot -13.9066 -3.29523
ltoes -22.537
236
root -0.621299 18.0875 -6.64869 -170.765 -33.8512 181.106
lowerback -9.41415 0.133941 1.46657
upperback -2.22999 -0.0875942 -0.0191624
thorax 2.96119 -0.0878135 -0.858043
lowerneck -18.5697 0.146047 1.88124
upperneck 24.1522 -0.540172 -1.1659
head 10.859 -0.40553 -0.852851
rclavicle -6.30031e-014 -2.23633e-015
rhumerus -28.7607 15.1181 -95.6781
rradius 37.9157
rwrist -2.18981
rhand -22.0307 11.8797
rfingers 7.12502
rthumb 4.37913 -18.0551
lclavicle -6.30031e-014 -2.23633e-015
lhumerus -40.2464 -13.7704 89.0035
lradius 36.6451
lwrist 11.9007
lhand -11.265 27.3551
lfingers 7.12502
lthumb 14.7652 56.8092
rfemur -1.2383 -5.9354 22.9374
rtibia 16.1354
rfoot -18.6996 9.60201
rtoes -2.74588
lfemur -40.7455 14.7687 -26.6283
ltibia 20.7214
lfoot -13.7333 -2.80723
ltoes -21.8345
237
root -0.704286 18.0694 -6.73758 -170.937 -33.549 181.36
lowerback -9.42495 0.199788 1.65205
upperback -2.17801 -0.0164781 -0.0167527
thorax 3.02282 -0.049504 -0.951587
lowerneck -18.697 0.164571 1.94273
upperneck 24.1574 -0.535932 -1.14821
head 10.8857 -0.393864 -0.856545
rclavicle 5.06093e-014 3.04141e-014
rhumerus -28.7952 14.9969 -95.7908
rradius 37.6945
rwrist -1.91407
rhand -22.2487 12.7321
rfingers 7.12502
rthumb 4.16863 -17.2069
lclavicle 5.06093e-014 3.04141e-014
lhumerus -40.1052 -13.775 88.9505
lradius 36.372
lwrist 11.8598
lhand -11.3561 27.1298
lfingers 7.12502
lthumb 14.6774 56.5903
rfemur -0.77204 -5.83764 22.9911
rtibia 16.0493
rfoot -18.6054 9.74633
rtoes -3.16133
lfemur -40.6339 14.7399 -26.2897
ltibia 21.1205
lfoot -13.6043 -2.4066
ltoes -22.7398
238
root -0.788337 18.0499 -6.82815 -171.179 -33.2953 181.71
lowerback -9.39239 0.178845 1.83808
upperback -2.17321 -0.0665293 0.103068
thorax 3.00836 -0.0736979 -0.938071
lowerneck -18.7489 0.250051 1.93837
upperneck 24.2249 -0.414152 -1.1646
head 10.923 -0.34221 -0.84503
rclavicle 5.92937e-015 -1.33186e-014
rhumerus -28.9961 15.3818 -96.0553
rradius 37.8554
rwrist -2.0179
rhand -22.338 11.465
rfingers 7.12502
rthumb 4.08235 -18.4756
lclavicle 5.92937e-015 -1.33186e-014
lhumerus -40.1333 -13.5816 88.9615
lradius 36.2169
lwrist 11.8523
lhand -11.5836 27.1226
lfingers 7.12502
lthumb 14.4583 56.5989
rfemur -0.300569 -5.79896 23.1193
rtibia 16.0179
rfoot -18.5145 9.97971
rtoes -3.36064
lfemur -40.4623 14.555 -25.7487
ltibia 21.612
lfoot -13.4952 -1.9335
ltoes -23.065
239
root -0.870314 18.0328 -6.91754 -171.267 -32.9585 181.835
lowerback -9.34947 0.174484 1.78894
upperback -2.22119 -0.0722285 0.187544
thorax 2.93492 -0.079304 -0.82356
lowerneck -18.7569 0.332363 1.9331
upperneck 24.3867 -0.297285 -1.20879
head 10.9869 -0.299665 -0.845419
rclavicle -3.92755e-015 3.97569e-016
rhumerus -29.2362 15.5369 -96.1685
rradius 37.5646
rwrist -1.91489
rhand -21.7763 11.8571
rfingers 7.12502
rthumb 4.62475 -18.0724
lclavicle -3.92755e-015 3.97569e-016
lhumerus -40.2335 -13.2558 88.9515
lradius 36.0767
lwrist 11.6747
lhand -11.5295 27.2082
lfingers 7.12502
lthumb 14.5103 56.6808
rfemur 0.104344 -5.67984 23.0362
rtibia 16.0865
rfoot -18.379 10.2282
rtoes -3.32015
lfemur -40.1886 13.9793 -25.1499
ltibia 22.1194
lfoot -13.4237 -1.05414
ltoes -22.4588
240
root -0.958834 18.0185 -7.00878 -171.226 -32.5499 181.821
lowerback -9.42063 0.259453 1.74618
upperback -2.25288 0.0428548 0.129537
thorax 2.9446 -0.023595 -0.846145
lowerneck -18.7999 0.347752 1.95829
upperneck 24.5171 -0.31067 -1.14765
head 11.044 -0.298594 -0.83146
rclavicle 4.28831e-014 8.05078e-015
rhumerus -29.3941 15.2675 -96.2637
rradius 37.267
rwrist -1.36806
rhand -21.5159 12.1514
rfingers 7.12502
rthumb 4.87624 -17.7725
lclavicle 4.28831e-014 8.05078e-015
lhumerus -40.2791 -13.1449 88.8527
lradius 35.9318
lwrist 11.4319
lhand -11.3115 27.233
lfingers 7.12502
lthumb 14.7204 56.6904
rfemur 0.389734 -5.53606 22.8151
rtibia 16.2884
rfoot -18.3192 10.3335
rtoes -4.67002
lfemur -39.8829 13.4481 -24.7531
ltibia 22.6222
lfoot -13.5369 0.0132359
ltoes -23.2527
241
root -1.05347 18.0029 -7.10288 -171.13 -32.0663 181.664
lowerback -9.51159 0.35523 1.64619
upperback -2.26252 0.181549 -0.00907126
thorax 2.98882 0.0446269 -0.916941
lowerneck -18.8295 0.380633 2.06681
upperneck 24.579 -0.311374 -1.11975
head 11.0731 -0.286547 -0.8407
rclavicle 5.89505e-014 2.78299e-015
rhumerus -29.5795 15.1414 -96.4753
rradius 37.1614
rwrist -1.09231
rhand -21.5825 11.8974
rfingers 7.12502
rthumb 4.81192 -18.028
lclavicle 5.89505e-014 2.78299e-015
lhumerus -40.3491 -13.164 88.7584
lradius 35.8259
lwrist 11.1412
lhand -11.2738 27.2218
lfingers 7.12502
lthumb 14.7567 56.6765
rfemur 0.662823 -5.29606 22.4426
rtibia 16.5933
rfoot -18.4477 10.3046
rtoes -6.42842
lfemur -39.5199 13.1133 -24.564
ltibia 23.1332
lfoot -13.54 0.625839
ltoes -22.906
242
root -1.14654 17.9848 -7.19909 -171.142 -31.5443 181.746
lowerback -9.60914 0.445578 1.66865
upperback -2.28596 0.295775 -0.0444695
thorax 3.02199 0.100314 -0.952442
lowerneck -18.8294 0.455093 2.15013
upperneck 24.5905 -0.241297 -1.09378
head 11.0789 -0.244263 -0.835108
rclavicle -1.65364e-014 1.00386e-014
rhumerus -29.8084 15.2759 -96.7325
rradius 37.0802
rwrist -1.01897
rhand -21.7059 11.4762
rfingers 7.12502
rthumb 4.69278 -18.4518
lclavicle -1.65364e-014 1.00386e-014
lhumerus -40.4195 -13.1332 88.722
lradius 35.6252
lwrist 10.983
lhand -11.4456 27.2211
lfingers 7.12502
lthumb 14.5912 56.6879
rfemur 0.948891 -4.99826 22.2837
rtibia 16.8347
rfoot -18.372 10.4097
rtoes -7.05866
lfemur -39.2171 12.9578 -24.206
ltibia 23.7337
lfoot -13.3198 0.96758
ltoes -21.5476
243
root -1.24092 17.9716 -7.29755 -171.151 -31.0731 181.844
lowerback -9.72323 0.496355 1.64686
upperback -2.32582 0.35827 -0.0271908
thorax 3.04534 0.12912 -0.914493
lowerneck -18.863 0.542552 2.173
upperneck 24.6469 -0.141353 -1.05096
head 11.1088 -0.192626 -0.809367
rclavicle -5.79131e-014 -8.15017e-015
rhumerus -30.0338 15.3836 -96.8714
rradius 36.7866
rwrist -0.731748
rhand -21.0387 11.7576
rfingers 7.12502
rthumb 5.337 -18.1552
lclavicle -5.79131e-014 -8.15017e-015
lhumerus -40.5203 -12.8916 88.6552
lradius 35.4428
lwrist 10.7484
lhand -11.3655 27.2241
lfingers 7.12502
lthumb 14.6684 56.6852
rfemur 1.324 -4.66203 22.1394
rtibia 16.8909
rfoot -18.1273 10.6176
rtoes -6.62935
lfemur -39.0063 13.1145 -24.0787
ltibia 24.3908
lfoot -12.7187 1.24891
ltoes -20.1065
244
root -1.34015 17.9648 -7.39751 -171.133 -30.7334 181.81
lowerback -9.83903 0.507705 1.60096
upperback -2.34797 0.375155 -0.0916724
thorax 3.08698 0.136155 -0.953079
lowerneck -18.9158 0.602912 2.27542
upperneck 24.7609 -0.0993763 -1.04576
head 11.1629 -0.165777 -0.820152
rclavicle 1.10061e-014 -4.17448e-015
rhumerus -30.2216 15.1629 -96.969
rradius 36.3868
rwrist -0.112802
rhand -19.9187 12.3263
rfingers 7.12502
rthumb 6.41826 -17.5565
lclavicle 1.10061e-014 -4.17448e-015
lhumerus -40.6558 -12.7514 88.5463
lradius 35.3711
lwrist 10.6439
lhand -11.2831 27.3628
lfingers 7.12502
lthumb 14.7478 56.8182
rfemur 1.8493 -4.32745 21.8862
rtibia 16.7996
rfoot -17.9038 10.6738
rtoes -6.94088
lfemur -38.9062 13.5325 -24.3275
ltibia 25.0229
lfoot -11.8538 1.71828
ltoes -21.3689
245
root -1.44171 17.9691 -7.49975 -171.109 -30.4705 181.624
lowerback -9.87841 0.484957 1.41184
upperback -2.37369 0.363998 -0.164495
thorax 3.08098 0.128395 -0.923414
lowerneck -18.7861 0.638188 2.27552
upperneck 24.7262 -0.0663182 -0.990097
head 11.1255 -0.14568 -0.794645
rclavicle -1.66731e-014 -1.47101e-014
rhumerus -30.4781 14.9169 -97.0501
rradius 36.0926
rwrist 0.508171
rhand -19.5988 12.6846
rfingers 7.12502
rthumb 6.72709 -17.1885
lclavicle -1.66731e-014 -1.47101e-014
lhumerus -40.8374 -12.7281 88.5737
lradius 35.3063
lwrist 10.7863
lhand -11.429 27.5521
lfingers 7.12502
lthumb 14.6072 57.0176
rfemur 2.50095 -3.91514 21.5323
rtibia 16.5963
rfoot -17.6097 10.5538
rtoes -7.57485
lfemur -38.794 13.845 -24.6466
ltibia 25.5556
lfoot -10.9735 2.39761
ltoes -24.5908
246
root -1.54211 17.9801 -7.60055 -170.889 -30.1926 181.234
lowerback -9.97809 0.426944 0.970721
upperback -2.42333 0.328901 -0.247789
thorax 3.08144 0.106052 -0.765606
lowerneck -18.7732 0.707821 2.33618
upperneck 24.7538 0.0221291 -1.03414
head 11.1351 -0.106891 -0.808217
rclavicle -6.70898e-015 5.96354e-016
rhumerus -30.7855 14.8778 -97.1773
rradius 35.8947
rwrist 0.733243
rhand -19.7737 12.7001
rfingers 7.12502
rthumb 6.5583 -17.1784
lclavicle -6.70898e-015 5.96354e-016
lhumerus -40.9451 -12.4642 88.5424
lradius 35.1272
lwrist 10.7494
lhand -11.5857 27.544
lfingers 7.12502
lthumb 14.4562 57.0205
rfemur 3.06676 -3.6156 20.9782
rtibia 16.3143
rfoot -17.0778 10.4242
rtoes -8.02297
lfemur -38.7385 13.8724 -24.9321
ltibia 25.9832
lfoot -10.0964 2.84787
ltoes -24.4692
247
root -1.6408 17.9919 -7.70363 -170.569 -29.8578 180.81
lowerback -10.1814 0.402862 0.511886
upperback -2.47966 0.34104 -0.406521
thorax 3.13347 0.106231 -0.669901
lowerneck -18.8258 0.764575 2.48365
upperneck 24.8224 0.0492242 -1.03204
head 11.1723 -0.0816879 -0.829253
rclavicle -4.123e-014 0
rhumerus -31.0288 14.6633 -97.3136
rradius 35.6374
rwrist 1.1038
rhand -19.7943 12.7094
rfingers 7.12502
rthumb 6.53837 -17.1697
lclavicle -4.123e-014 0
lhumerus -41.016 -12.3228 88.4187
lradius 34.9026
lwrist 10.735
lhand -11.5308 27.3988
lfingers 7.12502
lthumb 14.5091 56.8714
rfemur 3.49825 -3.30275 20.3918
rtibia 16.1104
rfoot -16.5259 10.174
rtoes -8.90928
lfemur -38.6973 13.8472 -25.1828
ltibia 26.3214
lfoot -9.03716 3.00378
ltoes -21.9161
